<?xml version="1.0" encoding="utf-8"?>
<!-- Generator: Adobe Illustrator 16.0.0, SVG Export Plug-In . SVG Version: 6.00 Build 0)  -->
<!DOCTYPE svg PUBLIC "-//W3C//DTD SVG 1.1//EN" "http://www.w3.org/Graphics/SVG/1.1/DTD/svg11.dtd">
<svg version="1.1" id="Layer_1" xmlns="http://www.w3.org/2000/svg" xmlns:xlink="http://www.w3.org/1999/xlink" x="0px" y="0px"
	 width="256px" height="256px" viewBox="0 0 256 256" enable-background="new 0 0 256 256" xml:space="preserve">
<g id="Layer_2_8_">
	<g>
		<path fill="#CB1517" d="M77.017,127.803c0.01,8.959,6.205,18.605,19.797,18.605h16.543c0.977,0,1.799-0.805,1.799-1.754V110.91
			c-0.008-1.771,0.904-3.16,2.398-3.621c1.426-0.445,3,0.123,3.963,1.482c4.656,7.506,23.241,36.809,23.403,37.062
			c0.357,0.512,0.877,0.754,1.309,0.617c0.488-0.146,0.789-0.75,0.789-1.58v-33.949c-0.012-1.779,0.904-3.164,2.387-3.629
			c1.426-0.443,3.006,0.131,3.963,1.486c4.666,7.504,23.242,36.814,23.4,37.059c0.375,0.516,0.904,0.764,1.367,0.621
			c0.508-0.162,0.809-0.746,0.809-1.588v-44.773h-6.906v26.148c0,0-4.238-7.102-11.488-19.348
			c-7.09-11.99-20.463-7.037-20.463,3.291v16.049c0,0-4.145-7.096-11.383-19.342c-7.094-11.998-20.495-7.041-20.495,3.285v27.611
			c0.004,0.998-0.742,1.877-1.842,1.881h-8.77c-18.971,0.021-17.273-23.879-1.127-23.904c7.176-0.01,9.691,0,9.691,0v-6.721H96.123
			C82.988,109.07,77.011,118.789,77.017,127.803z"/>
		<path fill="#CB1517" d="M181.117,100.102v44.771c0.008,2.146-1.193,3.279-2.32,3.633c-1.391,0.43-2.885-0.133-3.842-1.486
			c-0.184-0.291-18.781-29.611-23.4-37.066c-0.383-0.535-0.967-0.771-1.492-0.611c-0.551,0.174-0.869,0.748-0.865,1.57v33.957
			c0.01,2.146-1.186,3.283-2.307,3.627c-1.355,0.432-2.838-0.133-3.791-1.488c-0.188-0.291-18.774-29.607-23.403-37.062
			c-0.381-0.539-0.965-0.777-1.488-0.607c-0.559,0.17-0.873,0.742-0.873,1.566v33.746c0,2.148-1.789,3.91-3.977,3.91H96.816
			c-15.084,0-21.961-10.76-21.975-20.754c-0.01-10.373,7.299-20.881,21.281-20.906h10.043v-6.803h-8.795
			c-39.438-0.004-39.057,55.316,0.529,55.336h15.471c6.652,0.01,10.932-3.879,10.926-11.043v-14.01c0,0,8.67,14.158,12.079,19.709
			c5.787,9.43,19.809,7.576,19.777-4.205v-15.496c0,0,8.672,14.162,12.074,19.709c5.799,9.426,19.807,7.574,19.773-4.211v-45.785
			H181.117L181.117,100.102z"/>
	</g>
</g>
</svg>
